<svg width="944" height="1527" viewBox="0 0 944 1527" fill="none" xmlns="http://www.w3.org/2000/svg">
<path d="M0 496.06C744.25 8.64999 1151.15 543.88 182.02 1526.01C344.74 1230.68 784.95 428.39 0 496.06Z" fill="#0D4B92"/>
<path d="M806.54 741.29C803.29 752.45 799.8 763.72 795.96 775.17C785.44 806.49 772.72 838.65 758 871.53C761.37 873.61 764.64 875.76 767.8 877.99C818.16 914.23 827.53 962.84 819.09 1015.75C795.63 1126.24 705.72 1224.51 599.62 1307.97C755.39 1227.56 909.53 1113.27 939.75 969.22C958.71 872.67 900.28 795.41 806.54 741.29Z" fill="#0D4B92"/>
<path d="M375.95 269.66C450.415 269.66 510.78 209.295 510.78 134.83C510.78 60.3654 450.415 0 375.95 0C301.486 0 241.12 60.3654 241.12 134.83C241.12 209.295 301.486 269.66 375.95 269.66Z" fill="#0D4B92"/>
<path d="M82.86 578.83C93.116 578.83 101.43 570.516 101.43 560.26C101.43 550.005 93.116 541.69 82.86 541.69C72.6041 541.69 64.29 550.005 64.29 560.26C64.29 570.516 72.6041 578.83 82.86 578.83Z" fill="#00B6E5"/>
<path d="M175.67 602.19C192.1 602.19 205.42 588.871 205.42 572.44C205.42 556.01 192.1 542.69 175.67 542.69C159.239 542.69 145.92 556.01 145.92 572.44C145.92 588.871 159.239 602.19 175.67 602.19Z" fill="#00B6E5"/>
<path d="M286.171 636.098C300.199 622.07 300.199 599.327 286.171 585.299C272.144 571.271 249.401 571.271 235.373 585.299C221.345 599.327 221.345 622.07 235.373 636.098C249.401 650.125 272.144 650.125 286.171 636.098Z" fill="#00B6E5"/>
<path d="M350.012 706.542C364.829 691.726 364.829 667.704 350.012 652.887C335.196 638.071 311.173 638.071 296.357 652.887C281.54 667.704 281.54 691.726 296.357 706.542C311.173 721.359 335.196 721.359 350.012 706.542Z" fill="#00B6E5"/>
<path d="M367.656 802.811C386.836 794.867 395.944 772.878 387.999 753.698C380.054 734.518 358.065 725.41 338.885 733.354C319.705 741.299 310.597 763.288 318.542 782.468C326.486 801.648 348.475 810.756 367.656 802.811Z" fill="#00B6E5"/>
<path d="M357.96 898.25C378.201 898.25 394.61 881.841 394.61 861.6C394.61 841.359 378.201 824.95 357.96 824.95C337.719 824.95 321.31 841.359 321.31 861.6C321.31 881.841 337.719 898.25 357.96 898.25Z" fill="#00B6E5"/>
<path d="M346.66 989.73C366.028 989.73 381.73 974.028 381.73 954.66C381.73 935.291 366.028 919.59 346.66 919.59C327.291 919.59 311.59 935.291 311.59 954.66C311.59 974.028 327.291 989.73 346.66 989.73Z" fill="#00B6E5"/>
<path d="M325.16 1078.72C343.275 1078.72 357.96 1064.04 357.96 1045.92C357.96 1027.81 343.275 1013.12 325.16 1013.12C307.045 1013.12 292.36 1027.81 292.36 1045.92C292.36 1064.04 307.045 1078.72 325.16 1078.72Z" fill="#00B6E5"/>
<path d="M326.161 1140.11C328.799 1123.86 317.764 1108.55 301.513 1105.91C285.262 1103.27 269.949 1114.31 267.311 1130.56C264.674 1146.81 275.709 1162.12 291.96 1164.76C308.211 1167.4 323.523 1156.36 326.161 1140.11Z" fill="#00B6E5"/>
<path d="M281.709 1241.34C291.879 1231.17 291.879 1214.68 281.709 1204.51C271.54 1194.35 255.053 1194.35 244.883 1204.51C234.714 1214.68 234.714 1231.17 244.883 1241.34C255.053 1251.51 271.54 1251.51 281.709 1241.34Z" fill="#00B6E5"/>
<path d="M226.07 1330.33C237.834 1330.33 247.37 1320.79 247.37 1309.03C247.37 1297.27 237.834 1287.73 226.07 1287.73C214.306 1287.73 204.77 1297.27 204.77 1309.03C204.77 1320.79 214.306 1330.33 226.07 1330.33Z" fill="#00B6E5"/>
<path d="M185.89 1409.4C177.25 1409.4 170.25 1402.4 170.25 1393.76C170.25 1385.12 177.25 1378.12 185.89 1378.12C194.53 1378.12 201.53 1385.12 201.53 1393.76C201.53 1402.4 194.53 1409.4 185.89 1409.4Z" fill="#00B6E5"/>
<path d="M143.29 1485.95C138.54 1485.95 134.69 1482.1 134.69 1477.35C134.69 1472.6 138.54 1468.75 143.29 1468.75C148.04 1468.75 151.89 1472.6 151.89 1477.35C151.89 1482.1 148.04 1485.95 143.29 1485.95Z" fill="#00B6E5"/>
</svg>
