<svg width="2030" height="937" viewBox="0 0 2030 937" fill="none" xmlns="http://www.w3.org/2000/svg">
<path d="M296.901 877.72C294.469 877.72 292.271 878.147 290.309 879C288.346 879.811 286.682 881.027 285.317 882.648C283.951 884.227 282.906 886.168 282.181 888.472C281.455 890.733 281.093 893.293 281.093 896.152C281.093 899.907 281.669 903.171 282.821 905.944C284.015 908.717 285.765 910.851 288.069 912.344C290.415 913.837 293.338 914.584 296.837 914.584C298.842 914.584 300.741 914.413 302.533 914.072C304.325 913.731 306.074 913.304 307.781 912.792V917.784C306.074 918.424 304.303 918.893 302.469 919.192C300.677 919.491 298.522 919.64 296.005 919.64C291.354 919.64 287.471 918.68 284.357 916.76C281.242 914.84 278.895 912.109 277.317 908.568C275.781 905.027 275.013 900.867 275.013 896.088C275.013 892.632 275.482 889.475 276.421 886.616C277.402 883.757 278.81 881.283 280.645 879.192C282.522 877.101 284.826 875.501 287.557 874.392C290.287 873.24 293.423 872.664 296.965 872.664C299.311 872.664 301.573 872.899 303.749 873.368C305.925 873.837 307.866 874.499 309.573 875.352L307.269 880.216C305.861 879.576 304.282 879 302.533 878.488C300.826 877.976 298.949 877.72 296.901 877.72ZM347.77 919H322.234V873.304H347.77V878.36H327.994V892.632H346.618V897.624H327.994V913.944H347.77V919ZM398.501 919H391.781L367.333 881.048H367.077C367.119 881.816 367.162 882.669 367.205 883.608C367.29 884.547 367.354 885.571 367.397 886.68C367.439 887.747 367.482 888.856 367.525 890.008C367.567 891.16 367.589 892.312 367.589 893.464V919H362.277V873.304H368.933L393.317 911.128H393.573C393.53 910.616 393.487 909.912 393.445 909.016C393.402 908.077 393.359 907.053 393.317 905.944C393.274 904.792 393.231 903.619 393.189 902.424C393.146 901.229 393.125 900.12 393.125 899.096V873.304H398.501V919ZM429.846 919H424.086V878.36H409.814V873.304H444.054V878.36H429.846V919ZM468.032 873.304C471.83 873.304 474.944 873.795 477.376 874.776C479.851 875.715 481.686 877.144 482.88 879.064C484.075 880.984 484.672 883.395 484.672 886.296C484.672 888.728 484.224 890.755 483.328 892.376C482.432 893.997 481.28 895.299 479.872 896.28C478.507 897.219 477.056 897.965 475.52 898.52L488.064 919H481.344L470.272 900.12H461.184V919H455.424V873.304H468.032ZM467.712 878.296H461.184V895.256H468.032C470.507 895.256 472.534 894.936 474.112 894.296C475.691 893.613 476.843 892.632 477.568 891.352C478.336 890.072 478.72 888.472 478.72 886.552C478.72 884.547 478.315 882.947 477.504 881.752C476.736 880.557 475.542 879.683 473.92 879.128C472.299 878.573 470.23 878.296 467.712 878.296ZM539.589 896.088C539.589 899.629 539.141 902.851 538.245 905.752C537.349 908.611 536.005 911.085 534.213 913.176C532.463 915.267 530.266 916.867 527.621 917.976C525.018 919.085 521.989 919.64 518.533 919.64C514.949 919.64 511.834 919.085 509.189 917.976C506.543 916.824 504.346 915.224 502.597 913.176C500.847 911.085 499.546 908.589 498.693 905.688C497.839 902.787 497.413 899.565 497.413 896.024C497.413 891.331 498.181 887.235 499.717 883.736C501.253 880.237 503.578 877.507 506.693 875.544C509.85 873.581 513.818 872.6 518.597 872.6C523.162 872.6 527.002 873.581 530.117 875.544C533.231 877.464 535.578 880.195 537.157 883.736C538.778 887.235 539.589 891.352 539.589 896.088ZM503.493 896.088C503.493 899.928 504.026 903.235 505.093 906.008C506.159 908.781 507.802 910.915 510.021 912.408C512.282 913.901 515.119 914.648 518.533 914.648C521.989 914.648 524.805 913.901 526.981 912.408C529.199 910.915 530.842 908.781 531.909 906.008C532.975 903.235 533.509 899.928 533.509 896.088C533.509 890.328 532.314 885.827 529.925 882.584C527.535 879.299 523.759 877.656 518.597 877.656C515.141 877.656 512.282 878.403 510.021 879.896C507.802 881.347 506.159 883.459 505.093 886.232C504.026 888.963 503.493 892.248 503.493 896.088ZM612.41 895.704C612.41 900.824 611.45 905.112 609.53 908.568C607.652 912.024 604.943 914.627 601.402 916.376C597.86 918.125 593.572 919 588.538 919H575.802V873.304H589.882C594.49 873.304 598.479 874.157 601.85 875.864C605.22 877.571 607.823 880.088 609.658 883.416C611.492 886.701 612.41 890.797 612.41 895.704ZM606.33 895.896C606.33 891.843 605.647 888.515 604.282 885.912C602.959 883.309 600.996 881.389 598.394 880.152C595.834 878.872 592.719 878.232 589.05 878.232H581.562V914.072H587.77C593.956 914.072 598.586 912.557 601.658 909.528C604.772 906.456 606.33 901.912 606.33 895.896ZM652.568 919H627.032V873.304H652.568V878.36H632.792V892.632H651.416V897.624H632.792V913.944H652.568V919ZM694.439 919H688.679V873.304H714.215V878.36H694.439V894.552H712.999V899.608H694.439V919ZM739.211 919H722.699V915.672L728.075 914.456V877.912L722.699 876.632V873.304H739.211V876.632L733.835 877.912V914.456L739.211 915.672V919ZM778.434 906.776C778.434 909.507 777.773 911.832 776.45 913.752C775.128 915.629 773.229 917.08 770.754 918.104C768.322 919.128 765.442 919.64 762.114 919.64C760.408 919.64 758.765 919.555 757.186 919.384C755.65 919.213 754.242 918.979 752.962 918.68C751.682 918.339 750.552 917.933 749.57 917.464V911.96C751.106 912.643 753.005 913.261 755.266 913.816C757.57 914.371 759.938 914.648 762.37 914.648C764.632 914.648 766.53 914.349 768.066 913.752C769.602 913.155 770.754 912.301 771.522 911.192C772.29 910.083 772.674 908.781 772.674 907.288C772.674 905.795 772.354 904.536 771.714 903.512C771.074 902.488 769.965 901.549 768.386 900.696C766.85 899.8 764.696 898.861 761.922 897.88C759.96 897.155 758.232 896.387 756.738 895.576C755.288 894.723 754.072 893.763 753.09 892.696C752.109 891.629 751.362 890.413 750.85 889.048C750.381 887.683 750.146 886.104 750.146 884.312C750.146 881.88 750.765 879.811 752.002 878.104C753.24 876.355 754.946 875.011 757.122 874.072C759.341 873.133 761.88 872.664 764.738 872.664C767.256 872.664 769.56 872.899 771.65 873.368C773.741 873.837 775.64 874.456 777.346 875.224L775.554 880.152C773.976 879.469 772.248 878.893 770.37 878.424C768.536 877.955 766.616 877.72 764.61 877.72C762.69 877.72 761.09 877.997 759.81 878.552C758.53 879.107 757.57 879.896 756.93 880.92C756.29 881.901 755.97 883.053 755.97 884.376C755.97 885.912 756.29 887.192 756.93 888.216C757.57 889.24 758.616 890.157 760.066 890.968C761.517 891.779 763.48 892.653 765.954 893.592C768.642 894.573 770.904 895.64 772.738 896.792C774.616 897.901 776.024 899.245 776.962 900.824C777.944 902.403 778.434 904.387 778.434 906.776ZM804.983 919H788.471V915.672L793.847 914.456V877.912L788.471 876.632V873.304H804.983V876.632L799.607 877.912V914.456L804.983 915.672V919ZM858.159 896.088C858.159 899.629 857.711 902.851 856.815 905.752C855.919 908.611 854.575 911.085 852.783 913.176C851.033 915.267 848.836 916.867 846.191 917.976C843.588 919.085 840.559 919.64 837.103 919.64C833.519 919.64 830.404 919.085 827.759 917.976C825.113 916.824 822.916 915.224 821.167 913.176C819.417 911.085 818.116 908.589 817.263 905.688C816.409 902.787 815.983 899.565 815.983 896.024C815.983 891.331 816.751 887.235 818.287 883.736C819.823 880.237 822.148 877.507 825.263 875.544C828.42 873.581 832.388 872.6 837.167 872.6C841.732 872.6 845.572 873.581 848.687 875.544C851.801 877.464 854.148 880.195 855.727 883.736C857.348 887.235 858.159 891.352 858.159 896.088ZM822.063 896.088C822.063 899.928 822.596 903.235 823.663 906.008C824.729 908.781 826.372 910.915 828.591 912.408C830.852 913.901 833.689 914.648 837.103 914.648C840.559 914.648 843.375 913.901 845.551 912.408C847.769 910.915 849.412 908.781 850.479 906.008C851.545 903.235 852.079 899.928 852.079 896.088C852.079 890.328 850.884 885.827 848.495 882.584C846.105 879.299 842.329 877.656 837.167 877.656C833.711 877.656 830.852 878.403 828.591 879.896C826.372 881.347 824.729 883.459 823.663 886.232C822.596 888.963 822.063 892.248 822.063 896.088ZM885.293 919H879.533V878.36H865.261V873.304H899.501V878.36H885.293V919ZM936.408 919H910.872V873.304H936.408V878.36H916.632V892.632H935.256V897.624H916.632V913.944H936.408V919ZM963.522 873.304C967.32 873.304 970.434 873.795 972.866 874.776C975.341 875.715 977.176 877.144 978.37 879.064C979.565 880.984 980.162 883.395 980.162 886.296C980.162 888.728 979.714 890.755 978.818 892.376C977.922 893.997 976.77 895.299 975.362 896.28C973.997 897.219 972.546 897.965 971.01 898.52L983.554 919H976.834L965.762 900.12H956.674V919H950.914V873.304H963.522ZM963.202 878.296H956.674V895.256H963.522C965.997 895.256 968.024 894.936 969.602 894.296C971.181 893.613 972.333 892.632 973.058 891.352C973.826 890.072 974.21 888.472 974.21 886.552C974.21 884.547 973.805 882.947 972.994 881.752C972.226 880.557 971.032 879.683 969.41 879.128C967.789 878.573 965.72 878.296 963.202 878.296ZM1023.88 919L1018.37 904.856H1000.26L994.823 919H988.999L1006.85 873.112H1012.04L1029.83 919H1023.88ZM1011.53 885.912C1011.4 885.571 1011.19 884.952 1010.89 884.056C1010.59 883.16 1010.29 882.243 1009.99 881.304C1009.73 880.323 1009.52 879.576 1009.35 879.064C1009.14 879.917 1008.9 880.792 1008.65 881.688C1008.43 882.541 1008.2 883.331 1007.94 884.056C1007.73 884.781 1007.54 885.4 1007.37 885.912L1002.18 899.736H1016.65L1011.53 885.912ZM1052.66 873.304C1058.63 873.304 1062.98 874.477 1065.71 876.824C1068.44 879.171 1069.81 882.477 1069.81 886.744C1069.81 888.621 1069.49 890.435 1068.85 892.184C1068.25 893.891 1067.25 895.427 1065.84 896.792C1064.43 898.157 1062.56 899.245 1060.21 900.056C1057.86 900.824 1054.98 901.208 1051.57 901.208H1046.32V919H1040.56V873.304H1052.66ZM1052.15 878.232H1046.32V896.28H1050.93C1053.83 896.28 1056.24 895.981 1058.16 895.384C1060.08 894.744 1061.51 893.741 1062.45 892.376C1063.39 891.011 1063.86 889.219 1063.86 887C1063.86 884.056 1062.92 881.859 1061.04 880.408C1059.16 878.957 1056.2 878.232 1052.15 878.232ZM1096.66 919H1080.14V915.672L1085.52 914.456V877.912L1080.14 876.632V873.304H1096.66V876.632L1091.28 877.912V914.456L1096.66 915.672V919ZM1138.63 919L1133.13 904.856H1115.02L1109.58 919H1103.75L1121.61 873.112H1126.79L1144.58 919H1138.63ZM1126.28 885.912C1126.15 885.571 1125.94 884.952 1125.64 884.056C1125.34 883.16 1125.04 882.243 1124.74 881.304C1124.49 880.323 1124.27 879.576 1124.1 879.064C1123.89 879.917 1123.66 880.792 1123.4 881.688C1123.19 882.541 1122.95 883.331 1122.7 884.056C1122.48 884.781 1122.29 885.4 1122.12 885.912L1116.94 899.736H1131.4L1126.28 885.912ZM1190.17 872.6C1192.47 872.6 1194.43 873.005 1196.06 873.816C1197.72 874.584 1199 875.693 1199.9 877.144C1200.79 878.595 1201.24 880.365 1201.24 882.456C1201.24 885.144 1200.36 887.427 1198.62 889.304C1196.91 891.181 1194.73 892.888 1192.09 894.424L1204.44 906.328C1205.55 905.005 1206.44 903.491 1207.13 901.784C1207.85 900.035 1208.45 898.157 1208.92 896.152H1214.62C1213.93 898.883 1213.08 901.421 1212.06 903.768C1211.03 906.115 1209.71 908.163 1208.09 909.912L1217.43 919H1209.82L1204.25 913.624C1203.22 914.52 1202.16 915.352 1201.05 916.12C1199.98 916.845 1198.81 917.464 1197.53 917.976C1196.25 918.488 1194.86 918.893 1193.37 919.192C1191.92 919.491 1190.3 919.64 1188.5 919.64C1185.56 919.64 1183 919.171 1180.82 918.232C1178.69 917.251 1177.03 915.821 1175.83 913.944C1174.68 912.067 1174.1 909.784 1174.1 907.096C1174.1 904.92 1174.49 903.043 1175.26 901.464C1176.07 899.885 1177.22 898.477 1178.71 897.24C1180.2 896.003 1181.95 894.808 1183.96 893.656C1183.06 892.632 1182.19 891.565 1181.34 890.456C1180.48 889.347 1179.78 888.152 1179.22 886.872C1178.67 885.549 1178.39 884.12 1178.39 882.584C1178.39 880.493 1178.86 878.701 1179.8 877.208C1180.74 875.715 1182.08 874.584 1183.83 873.816C1185.62 873.005 1187.74 872.6 1190.17 872.6ZM1187.35 897.176C1185.82 898.072 1184.49 898.989 1183.38 899.928C1182.32 900.824 1181.48 901.827 1180.89 902.936C1180.29 904.045 1179.99 905.368 1179.99 906.904C1179.99 909.251 1180.78 911.128 1182.36 912.536C1183.94 913.944 1186.05 914.648 1188.7 914.648C1191.43 914.648 1193.77 914.2 1195.74 913.304C1197.7 912.408 1199.34 911.341 1200.66 910.104L1187.35 897.176ZM1189.98 877.208C1188.18 877.208 1186.71 877.677 1185.56 878.616C1184.45 879.555 1183.9 880.856 1183.9 882.52C1183.9 884.056 1184.3 885.485 1185.11 886.808C1185.92 888.088 1187.1 889.517 1188.63 891.096C1191.15 889.645 1192.94 888.28 1194.01 887C1195.12 885.677 1195.67 884.163 1195.67 882.456C1195.67 880.92 1195.16 879.661 1194.14 878.68C1193.11 877.699 1191.72 877.208 1189.98 877.208ZM1262.49 873.304C1266.28 873.304 1269.4 873.795 1271.83 874.776C1274.31 875.715 1276.14 877.144 1277.34 879.064C1278.53 880.984 1279.13 883.395 1279.13 886.296C1279.13 888.728 1278.68 890.755 1277.78 892.376C1276.89 893.997 1275.74 895.299 1274.33 896.28C1272.96 897.219 1271.51 897.965 1269.98 898.52L1282.52 919H1275.8L1264.73 900.12H1255.64V919H1249.88V873.304H1262.49ZM1262.17 878.296H1255.64V895.256H1262.49C1264.96 895.256 1266.99 894.936 1268.57 894.296C1270.15 893.613 1271.3 892.632 1272.02 891.352C1272.79 890.072 1273.18 888.472 1273.18 886.552C1273.18 884.547 1272.77 882.947 1271.96 881.752C1271.19 880.557 1270 879.683 1268.38 879.128C1266.75 878.573 1264.68 878.296 1262.17 878.296ZM1319.71 919H1294.17V873.304H1319.71V878.36H1299.93V892.632H1318.56V897.624H1299.93V913.944H1319.71V919ZM1369.16 919H1363.4V897.688H1339.97V919H1334.21V873.304H1339.97V892.632H1363.4V873.304H1369.16V919ZM1414.8 919L1409.3 904.856H1391.19L1385.75 919H1379.92L1397.78 873.112H1402.96L1420.76 919H1414.8ZM1402.45 885.912C1402.32 885.571 1402.11 884.952 1401.81 884.056C1401.51 883.16 1401.21 882.243 1400.92 881.304C1400.66 880.323 1400.45 879.576 1400.28 879.064C1400.06 879.917 1399.83 880.792 1399.57 881.688C1399.36 882.541 1399.12 883.331 1398.87 884.056C1398.65 884.781 1398.46 885.4 1398.29 885.912L1393.11 899.736H1407.57L1402.45 885.912ZM1444.54 873.304C1448.34 873.304 1451.52 873.667 1454.08 874.392C1456.68 875.117 1458.62 876.312 1459.9 877.976C1461.23 879.64 1461.89 881.859 1461.89 884.632C1461.89 886.424 1461.55 888.024 1460.86 889.432C1460.22 890.797 1459.24 891.949 1457.92 892.888C1456.64 893.784 1455.06 894.403 1453.18 894.744V895.064C1455.1 895.363 1456.83 895.917 1458.37 896.728C1459.95 897.539 1461.18 898.691 1462.08 900.184C1462.97 901.677 1463.42 903.619 1463.42 906.008C1463.42 908.781 1462.78 911.149 1461.5 913.112C1460.22 915.032 1458.39 916.504 1456 917.528C1453.65 918.509 1450.84 919 1447.55 919H1431.49V873.304H1444.54ZM1445.69 892.76C1449.62 892.76 1452.31 892.141 1453.76 890.904C1455.21 889.624 1455.93 887.747 1455.93 885.272C1455.93 882.755 1455.04 880.963 1453.25 879.896C1451.5 878.787 1448.68 878.232 1444.8 878.232H1437.25V892.76H1445.69ZM1437.25 897.56V914.136H1446.46C1450.52 914.136 1453.33 913.347 1454.91 911.768C1456.49 910.189 1457.28 908.12 1457.28 905.56C1457.28 903.939 1456.92 902.531 1456.19 901.336C1455.51 900.141 1454.33 899.224 1452.67 898.584C1451.05 897.901 1448.83 897.56 1446.01 897.56H1437.25ZM1481.67 916.094L1478.23 919.562L1474.76 916.094L1478.23 912.656L1481.67 916.094ZM1529.35 919H1512.84V915.672L1518.22 914.456V877.912L1512.84 876.632V873.304H1529.35V876.632L1523.98 877.912V914.456L1529.35 915.672V919ZM1578.88 919H1572.16L1547.71 881.048H1547.46C1547.5 881.816 1547.54 882.669 1547.58 883.608C1547.67 884.547 1547.73 885.571 1547.78 886.68C1547.82 887.747 1547.86 888.856 1547.9 890.008C1547.95 891.16 1547.97 892.312 1547.97 893.464V919H1542.66V873.304H1549.31L1573.7 911.128H1573.95C1573.91 910.616 1573.87 909.912 1573.82 909.016C1573.78 908.077 1573.74 907.053 1573.7 905.944C1573.65 904.792 1573.61 903.619 1573.57 902.424C1573.53 901.229 1573.5 900.12 1573.5 899.096V873.304H1578.88V919ZM1610.23 919H1604.47V878.36H1590.19V873.304H1624.43V878.36H1610.23V919ZM1661.34 919H1635.8V873.304H1661.34V878.36H1641.56V892.632H1660.19V897.624H1641.56V913.944H1661.34V919ZM1695.69 894.872H1711.49V917.272C1709.02 918.083 1706.52 918.68 1704.01 919.064C1701.49 919.448 1698.63 919.64 1695.43 919.64C1690.69 919.64 1686.71 918.701 1683.46 916.824C1680.22 914.904 1677.75 912.195 1676.04 908.696C1674.37 905.155 1673.54 900.973 1673.54 896.152C1673.54 891.373 1674.48 887.235 1676.36 883.736C1678.24 880.237 1680.92 877.528 1684.42 875.608C1687.96 873.645 1692.23 872.664 1697.22 872.664C1699.78 872.664 1702.19 872.899 1704.45 873.368C1706.76 873.837 1708.89 874.499 1710.85 875.352L1708.68 880.344C1707.06 879.619 1705.22 879 1703.17 878.488C1701.17 877.976 1699.08 877.72 1696.9 877.72C1693.28 877.72 1690.16 878.467 1687.56 879.96C1684.96 881.453 1682.97 883.587 1681.61 886.36C1680.24 889.091 1679.56 892.355 1679.56 896.152C1679.56 899.779 1680.13 903 1681.29 905.816C1682.48 908.589 1684.34 910.765 1686.85 912.344C1689.37 913.88 1692.68 914.648 1696.77 914.648C1698.14 914.648 1699.33 914.605 1700.36 914.52C1701.43 914.392 1702.39 914.243 1703.24 914.072C1704.13 913.901 1704.97 913.731 1705.73 913.56V899.992H1695.69V894.872ZM1739.5 873.304C1743.29 873.304 1746.41 873.795 1748.84 874.776C1751.32 875.715 1753.15 877.144 1754.35 879.064C1755.54 880.984 1756.14 883.395 1756.14 886.296C1756.14 888.728 1755.69 890.755 1754.79 892.376C1753.9 893.997 1752.75 895.299 1751.34 896.28C1749.97 897.219 1748.52 897.965 1746.99 898.52L1759.53 919H1752.81L1741.74 900.12H1732.65V919H1726.89V873.304H1739.5ZM1739.18 878.296H1732.65V895.256H1739.5C1741.97 895.256 1744 894.936 1745.58 894.296C1747.16 893.613 1748.31 892.632 1749.03 891.352C1749.8 890.072 1750.19 888.472 1750.19 886.552C1750.19 884.547 1749.78 882.947 1748.97 881.752C1748.2 880.557 1747.01 879.683 1745.39 879.128C1743.76 878.573 1741.69 878.296 1739.18 878.296ZM1799.85 919L1794.35 904.856H1776.24L1770.8 919H1764.97L1782.83 873.112H1788.01L1805.81 919H1799.85ZM1787.5 885.912C1787.37 885.571 1787.16 884.952 1786.86 884.056C1786.56 883.16 1786.26 882.243 1785.97 881.304C1785.71 880.323 1785.5 879.576 1785.33 879.064C1785.11 879.917 1784.88 880.792 1784.62 881.688C1784.41 882.541 1784.17 883.331 1783.92 884.056C1783.7 884.781 1783.51 885.4 1783.34 885.912L1778.16 899.736H1792.62L1787.5 885.912ZM1816.54 919V873.304H1822.3V913.88H1842.26V919H1816.54Z" fill="white"/>
<path d="M1754.34 397.365C1752.6 403.347 1750.73 409.389 1748.67 415.526C1743.03 432.315 1736.21 449.555 1728.32 467.18C1730.13 468.295 1731.88 469.447 1733.57 470.643C1760.57 490.069 1765.59 516.126 1761.07 544.488C1748.49 603.716 1700.3 656.393 1643.42 701.131C1726.92 658.028 1809.55 596.763 1825.75 519.546C1835.91 467.791 1804.59 426.376 1754.34 397.365Z" fill="#0D4B92"/>
<path d="M1322 265.911C1720.95 4.63725 1939.07 291.545 1419.57 818.01C1506.8 659.7 1742.77 229.637 1322 265.911Z" fill="#0D4B92"/>
<path d="M1523.53 144.55C1563.44 144.55 1595.8 112.191 1595.8 72.2749C1595.8 32.3586 1563.44 0 1523.53 0C1483.61 0 1451.25 32.3586 1451.25 72.2749C1451.25 112.191 1483.61 144.55 1523.53 144.55Z" fill="#0D4B92"/>
<path d="M1366.42 310.279C1371.91 310.279 1376.37 305.822 1376.37 300.324C1376.37 294.827 1371.91 290.37 1366.42 290.37C1360.92 290.37 1356.46 294.827 1356.46 300.324C1356.46 305.822 1360.92 310.279 1366.42 310.279Z" fill="#00B6E5"/>
<path d="M1416.17 322.801C1424.97 322.801 1432.11 315.661 1432.11 306.854C1432.11 298.046 1424.97 290.906 1416.17 290.906C1407.36 290.906 1400.22 298.046 1400.22 306.854C1400.22 315.661 1407.36 322.801 1416.17 322.801Z" fill="#00B6E5"/>
<path d="M1475.4 340.976C1482.92 333.457 1482.92 321.266 1475.4 313.746C1467.88 306.227 1455.69 306.227 1448.17 313.746C1440.65 321.266 1440.65 333.457 1448.17 340.976C1455.69 348.496 1467.88 348.496 1475.4 340.976Z" fill="#00B6E5"/>
<path d="M1509.62 378.738C1517.56 370.796 1517.56 357.919 1509.62 349.977C1501.68 342.034 1488.8 342.034 1480.86 349.977C1472.92 357.919 1472.92 370.796 1480.86 378.738C1488.8 386.681 1501.68 386.681 1509.62 378.738Z" fill="#00B6E5"/>
<path d="M1519.08 430.343C1529.36 426.085 1534.24 414.298 1529.98 404.016C1525.73 393.735 1513.94 388.853 1503.66 393.111C1493.38 397.37 1488.49 409.157 1492.75 419.438C1497.01 429.72 1508.8 434.602 1519.08 430.343Z" fill="#00B6E5"/>
<path d="M1513.88 481.502C1524.73 481.502 1533.53 472.706 1533.53 461.856C1533.53 451.006 1524.73 442.21 1513.88 442.21C1503.03 442.21 1494.24 451.006 1494.24 461.856C1494.24 472.706 1503.03 481.502 1513.88 481.502Z" fill="#00B6E5"/>
<path d="M1507.83 530.54C1518.21 530.54 1526.62 522.123 1526.62 511.74C1526.62 501.358 1518.21 492.941 1507.83 492.941C1497.44 492.941 1489.03 501.358 1489.03 511.74C1489.03 522.123 1497.44 530.54 1507.83 530.54Z" fill="#00B6E5"/>
<path d="M1496.3 578.243C1506.01 578.243 1513.88 570.371 1513.88 560.66C1513.88 550.95 1506.01 543.078 1496.3 543.078C1486.59 543.078 1478.72 550.95 1478.72 560.66C1478.72 570.371 1486.59 578.243 1496.3 578.243Z" fill="#00B6E5"/>
<path d="M1496.84 611.151C1498.25 602.44 1492.34 594.232 1483.62 592.818C1474.91 591.404 1466.7 597.319 1465.29 606.031C1463.88 614.742 1469.79 622.95 1478.5 624.364C1487.21 625.778 1495.42 619.863 1496.84 611.151Z" fill="#00B6E5"/>
<path d="M1473.01 665.414C1478.46 659.963 1478.46 651.125 1473.01 645.674C1467.56 640.223 1458.72 640.223 1453.27 645.674C1447.82 651.125 1447.82 659.963 1453.27 665.414C1458.72 670.865 1467.56 670.865 1473.01 665.414Z" fill="#00B6E5"/>
<path d="M1443.18 713.117C1449.49 713.117 1454.6 708.005 1454.6 701.699C1454.6 695.393 1449.49 690.281 1443.18 690.281C1436.88 690.281 1431.77 695.393 1431.77 701.699C1431.77 708.005 1436.88 713.117 1443.18 713.117Z" fill="#00B6E5"/>
<path d="M1421.65 755.502C1417.01 755.502 1413.26 751.75 1413.26 747.118C1413.26 742.487 1417.01 738.734 1421.65 738.734C1426.28 738.734 1430.03 742.487 1430.03 747.118C1430.03 751.75 1426.28 755.502 1421.65 755.502Z" fill="#00B6E5"/>
<path d="M1398.81 796.536C1396.26 796.536 1394.2 794.473 1394.2 791.926C1394.2 789.38 1396.26 787.316 1398.81 787.316C1401.36 787.316 1403.42 789.38 1403.42 791.926C1403.42 794.473 1401.36 796.536 1398.81 796.536Z" fill="#00B6E5"/>
<path d="M117.15 610.25C117.15 619.783 117.883 626.75 119.35 631.15C120.817 635.183 123.567 637.933 127.6 639.4C132 640.867 138.967 641.6 148.5 641.6H167.2C195.8 641.6 220.55 634.083 241.45 619.05C262.35 603.65 276.283 582.933 283.25 556.9C283.25 556.167 283.983 555.8 285.45 555.8C286.183 555.8 286.917 556.167 287.65 556.9C288.75 557.267 289.3 557.633 289.3 558C286 594.3 284.35 624.55 284.35 648.75C284.35 651.683 283.617 653.883 282.15 655.35C281.05 656.45 279.033 657 276.1 657H16.5C15.7667 657 15.4 655.9 15.4 653.7C15.4 651.5 15.7667 650.4 16.5 650.4C28.2333 650.4 36.6667 649.483 41.8 647.65C47.3 645.817 50.9667 642.333 52.8 637.2C55 631.7 56.1 623.45 56.1 612.45V357.8C56.1 346.8 55 338.733 52.8 333.6C50.9667 328.467 47.3 324.983 41.8 323.15C36.3 320.95 27.8667 319.85 16.5 319.85C15.7667 319.85 15.4 318.75 15.4 316.55C15.4 314.35 15.7667 313.25 16.5 313.25L44.55 313.8C61.4167 314.533 75.35 314.9 86.35 314.9C97.35 314.9 111.283 314.533 128.15 313.8L156.2 313.25C157.3 313.25 157.85 314.35 157.85 316.55C157.85 318.75 157.3 319.85 156.2 319.85C144.833 319.85 136.4 320.95 130.9 323.15C125.4 324.983 121.733 328.65 119.9 334.15C118.067 339.283 117.15 347.35 117.15 358.35V610.25ZM322.257 657C321.157 657 320.607 655.9 320.607 653.7C320.607 651.5 321.157 650.4 322.257 650.4C333.99 650.4 342.424 649.483 347.557 647.65C353.057 645.817 356.724 642.333 358.557 637.2C360.39 631.7 361.307 623.45 361.307 612.45V357.8C361.307 346.8 360.39 338.733 358.557 333.6C356.724 328.467 353.057 324.983 347.557 323.15C342.057 320.95 333.624 319.85 322.257 319.85C321.157 319.85 320.607 318.75 320.607 316.55C320.607 314.35 321.157 313.25 322.257 313.25H555.457C559.124 313.25 560.957 314.9 560.957 318.2L562.057 391.35C562.057 392.083 560.957 392.633 558.757 393C556.924 393.367 555.824 393 555.457 391.9C549.59 370.633 539.69 354.867 525.757 344.6C511.824 334.333 493.49 329.2 470.757 329.2H454.257C443.257 329.2 435.19 331.583 430.057 336.35C424.924 341.117 422.357 348.45 422.357 358.35V610.25C422.357 620.883 424.374 628.767 428.407 633.9C432.44 639.033 438.857 641.6 447.657 641.6H465.807C494.407 641.6 517.324 635.733 534.557 624C551.79 612.267 564.44 594.117 572.507 569.55C572.507 568.817 573.24 568.45 574.707 568.45C575.807 568.45 576.724 568.817 577.457 569.55C578.557 569.917 579.107 570.283 579.107 570.65C575.44 599.25 573.607 625.283 573.607 648.75C573.607 651.683 573.057 653.883 571.957 655.35C570.857 656.45 568.657 657 565.357 657H322.257ZM534.557 534.35C534.557 519.317 528.69 507.583 516.957 499.15C505.59 490.35 489.09 485.95 467.457 485.95H393.207V470.55H468.007C489.274 470.55 505.59 466.883 516.957 459.55C528.324 452.217 534.007 441.95 534.007 428.75C534.007 427.65 534.924 427.1 536.757 427.1C538.957 427.1 540.057 427.65 540.057 428.75L539.507 478.25L540.057 504.65C540.79 517.117 541.157 527.017 541.157 534.35C541.157 535.083 540.057 535.45 537.857 535.45C535.657 535.45 534.557 535.083 534.557 534.35ZM705.474 515.65H863.874L867.724 531.05H697.224L705.474 515.65ZM997.524 650.4C999.357 650.4 1000.27 651.5 1000.27 653.7C1000.27 655.9 999.357 657 997.524 657C990.191 657 978.824 656.633 963.424 655.9C947.291 655.167 935.74 654.8 928.774 654.8C919.607 654.8 908.424 655.167 895.224 655.9C882.757 656.633 872.857 657 865.524 657C864.057 657 863.324 655.9 863.324 653.7C863.324 651.5 864.057 650.4 865.524 650.4C875.057 650.4 881.841 649.483 885.874 647.65C890.274 645.45 892.474 641.783 892.474 636.65C892.474 630.417 888.807 619.967 881.474 605.3L769.824 384.75L796.774 337.45L687.324 578.9C682.557 589.533 680.174 599.433 680.174 608.6C680.174 621.8 684.757 632.067 693.924 639.4C703.457 646.733 716.107 650.4 731.874 650.4C733.707 650.4 734.624 651.5 734.624 653.7C734.624 655.9 733.707 657 731.874 657C725.274 657 715.74 656.633 703.274 655.9C689.341 655.167 677.24 654.8 666.974 654.8C657.074 654.8 645.157 655.167 631.224 655.9C618.757 656.633 608.674 657 600.974 657C599.507 657 598.774 655.9 598.774 653.7C598.774 651.5 599.507 650.4 600.974 650.4C611.24 650.4 619.857 648.383 626.824 644.35C633.79 639.95 640.757 632.433 647.724 621.8C654.69 610.8 662.94 594.667 672.474 573.4L791.824 311.05C792.557 309.95 794.207 309.4 796.774 309.4C799.707 309.4 801.357 309.95 801.724 311.05L939.224 581.65C952.057 607.683 962.691 625.65 971.124 635.55C979.557 645.45 988.357 650.4 997.524 650.4ZM1288.38 657C1279.94 657 1264.36 641.783 1241.63 611.35C1218.89 580.55 1191.39 537.833 1159.13 483.2L1209.73 467.8C1240.16 514 1265.46 550.117 1285.63 576.15C1306.16 602.183 1324.31 621.067 1340.08 632.8C1355.84 644.533 1371.24 650.4 1386.28 650.4C1387.01 650.4 1387.38 651.5 1387.38 653.7C1387.38 655.9 1387.01 657 1386.28 657H1288.38ZM1170.13 311.6C1203.49 311.6 1229.34 317.833 1247.68 330.3C1266.01 342.4 1275.18 359.45 1275.18 381.45C1275.18 402.35 1269.13 421.233 1257.03 438.1C1245.29 454.967 1229.89 468.167 1210.83 477.7C1191.76 486.867 1171.78 491.45 1150.88 491.45C1136.58 491.45 1126.49 491.267 1120.63 490.9V612.45C1120.63 623.817 1121.54 632.067 1123.38 637.2C1125.21 642.333 1128.69 645.817 1133.83 647.65C1139.33 649.483 1147.94 650.4 1159.68 650.4C1160.41 650.4 1160.78 651.5 1160.78 653.7C1160.78 655.9 1160.41 657 1159.68 657C1147.58 657 1138.04 656.817 1131.08 656.45L1089.28 655.9L1049.13 656.45C1041.79 656.817 1031.89 657 1019.43 657C1018.33 657 1017.78 655.9 1017.78 653.7C1017.78 651.5 1018.33 650.4 1019.43 650.4C1031.16 650.4 1039.59 649.483 1044.73 647.65C1050.23 645.817 1053.89 642.333 1055.73 637.2C1057.93 631.7 1059.03 623.45 1059.03 612.45V357.8C1059.03 346.8 1058.11 338.733 1056.28 333.6C1054.44 328.467 1050.78 324.983 1045.28 323.15C1039.78 320.95 1031.34 319.85 1019.98 319.85C1019.24 319.85 1018.88 318.75 1018.88 316.55C1018.88 314.35 1019.24 313.25 1019.98 313.25L1049.13 313.8C1065.99 314.533 1079.38 314.9 1089.28 314.9C1101.74 314.9 1114.76 314.35 1128.33 313.25C1133.09 312.883 1138.96 312.517 1145.93 312.15C1153.26 311.783 1161.33 311.6 1170.13 311.6ZM1212.48 402.35C1212.48 372.283 1208.08 351.567 1199.28 340.2C1190.48 328.833 1177.83 323.15 1161.33 323.15C1146.66 323.15 1136.21 325.9 1129.98 331.4C1123.74 336.9 1120.63 346.067 1120.63 358.9V475.5C1129.43 476.967 1140.06 477.7 1152.53 477.7C1173.79 477.7 1189.01 471.833 1198.18 460.1C1207.71 448 1212.48 428.75 1212.48 402.35Z" fill="#0D4B92"/>
<path d="M846.98 685.173C839.721 696.742 835.381 702.535 835.381 703.983C835.381 703.983 835.381 704.455 835.855 704.455C836.344 704.455 836.833 703.983 838.285 703.495C845.039 700.599 859.557 696.254 873.081 676.972C879.378 667.81 881.303 661.545 881.303 657.689C881.303 654.792 880.341 653.344 878.4 653.344C877.926 653.344 876.964 653.816 875.985 654.304C875.985 654.304 857.127 668.282 846.98 685.173ZM886.621 628.269C902.102 628.269 910.797 640.798 910.797 656.24C910.797 662.017 909.835 667.81 907.42 674.075C896.295 701.575 830.537 726.65 830.537 726.65C830.537 726.65 829.574 729.531 829.574 734.836C829.574 741.589 831.026 751.238 836.833 762.808C843.114 775.353 853.261 780.658 869.215 780.658C880.341 780.658 893.881 778.25 911.287 773.417C953.832 761.848 1051.97 700.127 1062.61 687.093C1066.47 682.276 1070.83 679.868 1074.7 679.868C1080.49 679.868 1085.81 685.173 1087.75 691.438V692.398C1087.75 703.495 1010.88 746.894 962.038 770.049C928.693 785.963 900.161 792.716 876.474 792.716C864.875 792.716 854.713 791.268 845.528 788.371C824.745 781.618 812.168 757.031 812.168 728.099C779.77 738.708 699.035 760.399 595.577 781.146C484.859 803.325 363.521 815.383 284.711 815.383C270.209 815.383 257.158 814.895 246.033 813.935C173.031 808.63 126.62 784.987 103.895 771.497C90.8447 763.784 86 754.134 86 746.894C86 741.117 88.4145 737.26 92.2965 735.812H93.2592C103.406 735.812 140.144 774.393 175.445 790.78C194.793 799.469 235.886 804.774 290.992 804.774C341.27 804.774 403.162 800.429 469.883 790.78C609.59 770.521 781.711 721.33 814.109 711.696C825.708 672.627 841.662 652.856 871.156 631.637C876.964 629.229 881.792 628.269 886.621 628.269Z" fill="#00B6E5"/>
<path d="M1137.32 675.628C1114.59 675.628 1073.49 728.404 1073.49 739.547V740.021C1073.98 741.475 1074.94 742.455 1076.4 742.455C1085.09 742.455 1114.59 718.715 1144.58 678.046C1142.64 676.592 1140.23 675.628 1137.32 675.628ZM1163.44 690.644C1156.18 697.898 1153.77 700.317 1145.55 708.062C1106.86 743.893 1063.82 784.578 1043.52 784.578C1042.55 784.578 1041.58 784.088 1040.61 784.088C1035.29 783.123 1030.94 780.705 1028.03 776.833C1024.17 771.98 1022.71 765.215 1022.71 757.455V752.128C1024.17 743.893 1027.07 734.694 1031.43 724.531C1045.93 694.026 1075.91 657.704 1112.67 646.577C1123.31 643.669 1132 642.215 1139.74 642.215C1154.73 642.215 1165.37 647.051 1172.63 654.322C1187.61 642.689 1204.06 630.581 1213.73 630.581C1215.18 630.581 1216.15 631.071 1217.11 631.561C1223.41 632.526 1226.79 638.816 1226.79 649.469C1226.79 661.102 1222.92 677.556 1214.7 697.898C1211.32 708.062 1209.87 718.241 1209.87 726.95C1209.87 734.694 1210.83 741.965 1211.32 746.802C1217.6 757.455 1230.16 767.144 1254.34 767.144C1270.79 767.144 1292.07 762.781 1320.59 752.128C1466.15 698.388 1642.17 624.781 1796.43 618.49C1806.09 618 1814.8 618 1823.5 618C1869.92 618 1907.65 623.817 1936.66 633.016C1992.26 649.469 2020.31 675.628 2026.59 688.699C2028.54 691.118 2029.02 693.062 2029.02 695.48C2029.02 702.261 2022.25 708.552 2015.48 708.552C2013.07 708.552 2010.65 707.587 2008.71 705.643C2003.88 694.99 1979.21 664.485 1928.92 649.469C1898.46 640.27 1858.81 629.143 1809 629.143C1804.17 629.143 1799.32 629.617 1794 629.617C1628.63 636.398 1473.41 709.516 1320.59 766.18C1289.16 777.797 1265.47 782.633 1247.1 782.633C1197.29 782.633 1190.04 748.256 1190.04 728.404V719.205C1190.04 710.97 1191 702.261 1193.42 693.062C1196.32 674.664 1203.09 657.704 1203.09 654.322L1202.6 653.832C1202.12 653.832 1194.87 661.102 1183.74 671.266C1186.17 677.082 1186.65 683.373 1186.65 685.791L1186.17 687.245C1182.31 694.026 1176.01 696.444 1170.69 696.444C1168.76 696.444 1166.82 695.954 1164.88 695.48C1164.88 695.48 1164.41 695.48 1163.44 690.644Z" fill="#00B6E5"/>
</svg>
