<svg width="600" height="180" viewBox="0 0 600 180" fill="none" xmlns="http://www.w3.org/2000/svg">
<g clip-path="url(#clip0_2297_39)">
<path d="M432.2 24.4L380.6 122.6C379.5 124.7 376.3 124.7 375.2 122.6L323.6 24.4C323.1 23.4 322.1 22.8 321 22.8H296C294.3 22.8 293.2 24.6 294 26.1L375.3 178.3C376.4 180.4 379.4 180.4 380.6 178.3L461.9 26.1C462.7 24.6 461.6 22.8 459.9 22.8H434.9C433.7 22.8 432.7 23.4 432.2 24.4Z" fill="#004481"/>
<path d="M461.5 155.5L513.1 57.3C514.2 55.2 517.4 55.2 518.5 57.3L570.1 155.5C570.6 156.5 571.6 157.1 572.7 157.1H597.7C599.4 157.1 600.5 155.3 599.7 153.8L518.4 1.60002C517.3 -0.499976 514.3 -0.499976 513.1 1.60002L431.8 153.8C431 155.3 432.1 157.1 433.8 157.1H458.8C459.9 157 461 156.4 461.5 155.5Z" fill="#004481"/>
<path d="M108.8 95.2001C119.6 89.8001 126.3 78.1001 126.3 63.8001C126.3 39.3001 107.2 22.7001 80.3 22.7001H3C1.3 22.7001 0 24.0001 0 25.7001V176.8C0 178.5 1.3 179.8 3 179.8H77C114 179.8 133.5 163.9 133.5 132.7C133.5 102.3 108.8 95.2001 108.8 95.2001ZM29 45.5001H74.9C91.8 45.5001 100.4 52.7001 100.4 66.1001C100.4 79.5001 91.8 86.7001 74.9 86.7001H29C27.4 86.7001 26 85.4001 26 83.7001V48.5001C26 46.8001 27.3 45.5001 29 45.5001ZM75.5 157H29C27.3 157 26 155.7 26 154V112.3C26 110.7 27.3 109.3 29 109.3H75.5C97.7 109.3 107.6 115.6 107.6 133.1C107.5 150.8 97.9 157 75.5 157Z" fill="#004481"/>
<path d="M267.5 95.2001C278.3 89.8001 285 78.1001 285 63.8001C285 39.3001 265.9 22.7001 239 22.7001H161.6C159.9 22.7001 158.6 24.0001 158.6 25.7001V176.8C158.6 178.5 159.9 179.8 161.6 179.8H235.6C272.6 179.8 292.1 163.9 292.1 132.7C292.2 102.3 267.5 95.2001 267.5 95.2001ZM187.7 45.5001H233.6C250.5 45.5001 259.1 52.7001 259.1 66.1001C259.1 79.5001 250.5 86.7001 233.6 86.7001H187.7C186 86.7001 184.7 85.4001 184.7 83.7001V48.5001C184.7 46.8001 186 45.5001 187.7 45.5001ZM234.1 157H187.6C186 157 184.6 155.7 184.6 154V112.3C184.6 110.7 185.9 109.3 187.6 109.3H234.1C256.3 109.3 266.2 115.6 266.2 133.1C266.2 150.8 256.5 157 234.1 157Z" fill="#004481"/>
</g>
<defs>
<clipPath id="clip0_2297_39">
<rect width="600" height="179.8" fill="white"/>
</clipPath>
</defs>
</svg>
