<svg width="652" height="384" viewBox="0 0 652 384" fill="none" xmlns="http://www.w3.org/2000/svg">
<path d="M23.4997 163.098C22.5862 178.052 23.4997 193.009 23.4997 207.508V348.904H103.207V219.294C103.207 178.959 102.752 143.16 103.207 135.453C104.565 101.014 114.138 77.9145 131.902 59.3194H127.803C89.0902 59.3194 52.6496 81.5259 34.886 115.968C27.1435 130.924 24.4098 146.785 23.4997 163.098Z" fill="#820AD1"/>
<path d="M206.151 27.9032C176.545 27.9032 151.036 39.6851 131.907 59.1737C191.12 59.1737 229.836 99.5047 231.657 163.42C232.112 177.923 232.57 256.775 232.57 256.775V348.771H312.277V224.584C312.277 186.97 312.732 154.338 309.999 132.136C302.257 69.595 263.999 27.9032 206.151 27.9032Z" fill="#820AD1"/>
<path d="M626.096 221.05C627.006 206.093 626.096 191.14 626.096 176.637V35.2446H546.389V164.856C546.389 205.186 546.844 240.988 546.389 248.692C545.03 283.587 535.458 306.231 517.236 325.279H521.335C560.047 325.279 596.491 303.072 614.255 268.63C622.456 253.224 625.173 237.353 626.096 221.05Z" fill="#820AD1"/>
<path d="M443.444 356.096C473.053 356.096 498.558 344.314 517.687 324.826C458.478 324.826 419.762 284.491 417.938 220.58C417.483 206.077 417.028 169.371 417.028 127.225V35.2446H337.318V159.416C337.318 197.029 336.862 229.66 339.596 251.863C347.338 314.404 385.599 356.096 443.444 356.096Z" fill="#820AD1"/>
</svg>
